<?xml version="1.0" encoding="iso-8859-1"?>
<!-- Generator: Adobe Illustrator 16.0.0, SVG Export Plug-In . SVG Version: 6.00 Build 0)  -->
<!DOCTYPE svg PUBLIC "-//W3C//DTD SVG 1.1//EN" "http://www.w3.org/Graphics/SVG/1.1/DTD/svg11.dtd">
<svg version="1.1" xmlns="http://www.w3.org/2000/svg" xmlns:xlink="http://www.w3.org/1999/xlink" x="0px" y="0px"
	 width="912.059px" height="748.272px" viewBox="0 0 912.059 748.272" style="enable-background:new 0 0 912.059 748.272;"
	 xml:space="preserve">
<g id="Layer_12" style="display:none;">
	<rect x="-156.116" y="-108.417" style="display:inline;stroke:#FFFFFF;stroke-miterlimit:10;" width="1337" height="1035"/>
</g>
<g id="Layer_1">
</g>
<g id="Layer_10">
</g>
<g id="Layer_11">
</g>
<g id="Layer_4">
</g>
<g id="Layer_5">
</g>
<g id="Layer_6">
</g>
<g id="Layer_7">
</g>
<g id="Layer_8">
</g>
<g id="Layer_9" style="display:none;">
</g>
<g id="Layer_18">
</g>
<g id="Layer_2" style="display:none;">
</g>
<g id="Layer_3">
</g>
<g id="Layer_13">
</g>
<g id="Layer_14">
</g>
<g id="Layer_15">
</g>
<g id="Layer_16">
</g>
<g id="Layer_17">
	<g>
		<polygon style="fill:#FFFFFF;" points="543.37,606.083 461.277,748.272 379.183,606.083 		"/>
		<path style="fill:#FFFFFF;" d="M365.585,587.083l-90.359-157l90.359-157h180.72l90.358,157l-90.358,157H365.585z M377.499,334.083
			l78.684,136.284l78.685-136.284H377.499z"/>
		<g>
			<polygon style="fill:#FFFFFF;" points="0,164.083 91.269,322.165 182.538,164.083 			"/>
			
				<rect x="131.16" y="206.091" transform="matrix(0.8628 0.5055 -0.5055 0.8628 180.99 -74.2116)" style="fill:#FFFFFF;" width="192.173" height="180.634"/>
			<polygon style="fill:#FFFFFF;" points="98.337,0.083 189.606,158.165 280.875,0.083 			"/>
			<polygon style="fill:#FFFFFF;" points="0,158.083 91.269,0 182.538,158.083 			"/>
		</g>
		<g>
			<polygon style="fill:#FFFFFF;" points="912.059,164.083 820.79,322.165 729.521,164.083 			"/>
			
				<rect x="588.725" y="206.091" transform="matrix(-0.8629 0.5055 -0.5055 -0.8629 1425.5254 206.0184)" style="fill:#FFFFFF;" width="192.174" height="180.634"/>
			<polygon style="fill:#FFFFFF;" points="813.721,0.083 722.452,158.165 631.183,0.083 			"/>
			<polygon style="fill:#FFFFFF;" points="912.059,158.083 820.79,0 729.521,158.083 			"/>
		</g>
		<circle style="fill:#FFFFFF;" cx="460.467" cy="157.815" r="26.596"/>
		<polygon style="fill:#FFFFFF;" points="424.384,175.881 393.044,157.787 424.384,139.694 		"/>
		<polygon style="fill:#FFFFFF;" points="441.873,123.083 459.967,91.743 478.06,123.083 		"/>
		<polygon style="fill:#FFFFFF;" points="441.873,194.083 459.967,225.422 478.06,194.083 		"/>
		<polygon style="fill:#FFFFFF;" points="495.384,175.881 526.724,157.787 495.384,139.694 		"/>
	</g>
</g>
</svg>
